<?xml version="1.0" encoding="utf-8"?>
<!-- Generator: Adobe Illustrator 22.1.0, SVG Export Plug-In . SVG Version: 6.00 Build 0)  -->
<svg version="1.1" id="Calque_1" xmlns="http://www.w3.org/2000/svg" xmlns:xlink="http://www.w3.org/1999/xlink" x="0px" y="0px"
	 viewBox="0 0 1366 768" enable-background="new 0 0 1366 768" xml:space="preserve">
<g>
	<path display="none" fill="#FFFFFF" d="M1049.4,766.1c-244,0-487.9,0-731.9,0c0-254.6,0-509.1,0-763.7c244,0,487.9,0,731.9,0
		C1049.4,257,1049.4,511.6,1049.4,766.1z M669.9,178.6c33.6,5.4,59.4-14.2,87.4-27.1c-4.9,0-9.7,0.6-14.1,2.2
		c-15.2,5.7-30.1,12.1-45.4,17.5c-9,3.2-18.4,5.1-27.6,7.6c-3,2.4-6,4.7-9.1,7.1c1.1,0.9,2.2,1.9,3.3,2.8
		C666.2,185.4,668.1,182,669.9,178.6z M882.5,587c-8.1,3.4-16.8,5.9-24.2,10.5c-33.6,20.9-68,39.5-107.5,47.7
		c-46.2,9.6-91.7,9.6-135.7-7.9c-31.6-12.6-62.2-28.2-92.8-43.1c-8.4-4.1-18.1-9.2-22.9-16.6c-33.9-52.1-49.5-110.5-53.8-171.8
		c-3.9-55.1,5.7-109,22.6-161.2c7.4-22.8,15.1-45.6,36.9-61.3c28.2-20.3,56.7-39.9,89.2-52.2c45.8-17.4,93.2-19.3,140.8-9.5
		c49.4,10.1,92.9,34.4,134.9,61.2c6.9,4.4,11.7,11.9,17.4,18.1c3.9,4.3,7.6,8.7,11.4,13.1c0.6,4.3,0.5,8.8,1.9,12.9
		c5.7,16.9,12.2,33.5,17.6,50.5c4,12.9,6.7,26.2,10,39.4c1.4-7.1,1.5-14.1-0.6-20.4c-9.3-27.5-19.2-54.9-28.8-82.3
		c-3.6-6.3-7.3-12.6-10.6-19c-1.4-2.7-3.5-6.4-2.7-8.8c2.9-9.3,6.3-18.5,10.8-27.2c1.2-2.3,7.4-4.3,10.2-3.3
		c20.2,7.1,40.9,6.9,61.6,4.4c11.6-1.4,23.3-3.5,31.1-14.2c-16.1-6.9-34.9-8.2-46.6-25.9c31.1-2.9,57.6-11.5,79.4-36.8
		c-43.6,3.2-75.4-16.5-105.9-39.8c-11.9-9.1-24-18.2-36.9-25.8c-15-8.9-21.3-5.5-26.9,11.4c-2.1,6.4-5.6,12.4-8.5,18.6
		c-2.9,6.2-6.7,6.3-12.8,3.4c-48.7-22.8-100.5-32.8-153.9-33.6C627.2,16.7,569.3,25.7,516,55c-2.9,1.6-10.9-0.2-12.1-2.7
		c-4.6-8.8-8.3-18.3-10.4-28c-2.7-12.3-5.6-15.8-17-10.5c-12.8,5.9-24.6,14.1-36.3,22c-34.7,23.7-67.2,52.3-116.9,45.5
		c21.1,27.6,48.3,36.9,80.2,39.1c-5.5,6.8-11,13.4-18,17.4c-7.3,4.3-16,6.2-25.3,9.6c10.9,9.1,23,14.7,36,13.7
		c18.9-1.5,37.5-5.8,56.2-8.7c3.2-0.5,8.4-1.4,9.4,0.1c8.4,11.9,18.4,23.5,23,36.9c2.2,6.5-6.2,16.5-9.7,25
		c-0.5,1.1-0.9,2.2-1.4,3.4c-32.1,80.5-44.1,162.9-23.6,248.4c9.1,37.7,18.9,74.9,41,107.6c4,5.9,10.5,13.9,9,18.8
		c-4,12.6-11.8,24-18.1,35.8c-5.2-3-10.2-6.7-15.7-8.8c-25.4-9.8-51.1-7.5-76.8-1.1c-5.2,1.3-10.2,3.3-15.2,4.9c0,1,0.1,2,0.1,3
		c27.4-1.9,47.7,12,66.2,29.8c0.8-1.3,1.6-2.5,2.4-3.8c-14-10.4-27.9-20.7-42.3-31.4c27.6-5.8,54.4-2.7,80.5,8.3
		c-4,5.8-7.4,12-12.1,17.2c-11.8,12.9-10.8,16,0,29.6c17.4,21.9,33.1,45,49.2,67.9c2.1,3,2,7.6,3,11.5c-0.9,0.6-1.7,1.2-2.6,1.7
		c-46.2-30.7-93.4-59.3-153.1-66c26.2-21.9,52.9-29.9,84.1-21.1c-1.3-6-1.3-6-16.4-7.7c-30.7-3.6-64.9,11.7-75.5,34.2
		c34,0,64.9,10.6,94.1,26.7c19.9,11,39.3,23,59,34.4c10.8,6.3,16.4,4.2,20-7.7c1.5-5,1.9-10.4,3.3-15.5c1.5-5.2,3.8-10.2,5.9-15.8
		c5.5,2.5,9.3,4.1,12.9,5.9c38.3,19.5,79.1,29.7,121.9,31.8c63.5,3.2,123.8-9.8,181.1-37.2c8.7-4.2,15.4-2,19.3,6.4
		c3.9,8.4,7.3,17.2,9.3,26.2c1.9,8.5,6.8,11.9,13.7,8.4c9.9-5.1,19.7-11.3,28.1-18.7c32.1-28.3,64.6-54.9,112.4-52.1
		c-8.5-15.1-22.5-19.1-36.2-21c-14-1.9-28.4-0.4-44.4-0.4c12.5-25.7,34.3-35.1,58.7-41.3c-21.3-21-70.9-19.4-106.9,4.1
		c-8.8-14.4-17.7-28.7-26.5-43.1c8.1-14.3,18.1-27.8,24.1-42.9c24.4-61.8,33.7-126.1,28.8-192.5c-0.6-8.3-2.4-16.4-3.7-24.6
		c-2.4,3.4-2.2,6.5-2.1,9.6c0.3,31.6,3.3,63.5,0.3,94.8C925.4,486.7,909.9,538.9,882.5,587z M844.7,194.9c-1,0.9-2,1.8-3,2.7
		c2.8,4,5.8,7.8,8.5,11.9c27.1,42,14,95.4-29.7,117c-14,6.9-29.9,10.1-44.9,15.1c-9.9,3.3-20.1,6.2-29.5,10.7
		c-4,1.9-6.3,7.5-9.4,11.4c4.3,1.9,8.4,4.3,12.8,5.7c20.5,6.5,41.7,11.1,61.4,19.4c23.1,9.7,26,17.8,21.5,42.2
		c-1.4,7.6-2.8,15.2-4.4,22.8c-4.6,21.9-5.3,42.9,11.4,60.9c6.3,6.8,4.1,11.9-3.9,16.3c-14.6,8-28.8,16.7-43.1,25.3
		c-2.6,1.6-4.5,4.3-7.2,7c17.9-7.3,34.3-14,50.8-20.7c4.5-1.8,9.3-3.3,13.6-5.5c14.6-7.5,15.4-14.5,1.8-23.6
		c-11-7.4-16.8-17.1-14.9-29.9c2.5-16.4,5.5-32.9,10.1-48.8c5.8-19.9,1.6-39-14.7-48.2c-11.9-6.8-24.8-12.8-38-16.4
		c-15.4-4.3-31.6-5.6-47.5-8.2c13.3-5.8,26.9-9.4,40.7-12.5c25.4-5.6,50.1-13.3,67.5-33.8c24.4-28.9,22.9-70.8,7-100.1
		C857.4,207.9,850.4,201.8,844.7,194.9z M587,218.3c8.1,17,16.6,33.8,24,51.1c4.1,9.6,1.2,18.2-8,24.2c-4.1,2.7-8.2,5.4-12,8.3
		c-9.9,7.6-19.7,15.3-29.5,23c0.8,1.1,1.7,2.2,2.5,3.3c18.8-11.6,37.5-23.2,57.8-35.7c3.5,10.2,6.5,19,9.6,27.8
		c0.7-0.2,1.4-0.4,2.1-0.6c-2.1-10.8-4.2-21.6-7-35.4c8,5.4,13.2,9,18.6,12.7c-3.1-9.9-2.9-9.7,5.6-19.2c3.7-4.1,8.5-8.7,1.3-14.2
		c-4.5-3.4-10.6-6.3-12.7-10.9c-1.8-3.9,1.1-9.9,2-15.4c-15.4,10.8-13.8,17.2,8.2,34.1c-4.1,4.8-8.1,9.6-13.6,16.1
		C613.8,267.3,613.3,232.3,587,218.3z M614.7,512.5c-1.2-0.1-2.5-0.3-3.7-0.4c-4.4,35.4-7,70.9-2.4,106.6c0.5,3.5,4.8,8.5,8.3,9.4
		c20.3,5.2,40.8,9.9,61.5,13.8c5.7,1.1,12.1-1.5,18.2-2.4c-15.6-4-30.8-6.2-46-8.7c-23.2-3.7-32.1-10.7-34.6-33.7
		c-2.4-21.7-1-43.8-1.2-65.7C614.6,525.1,614.7,518.8,614.7,512.5z M722,264.7c14.4,0.5,22.4-8.1,20.6-23.6
		c-0.7-5.6-4.6-13.8-8.9-15.3c-5.1-1.7-13,1.3-18.3,4.5c-4.5,2.7-7,8.7-10.3,13.3c-8.1,11.2-5.7,17.4,7.8,20
		C716.1,264.3,719.4,264.4,722,264.7z M653,400.4c-1-0.1-1.9-0.2-2.9-0.3c-0.4,1.7-1.2,3.5-1.2,5.2c-0.3,19.5-0.8,38.9-0.7,58.4
		c0,9.1-1.4,14.9-12.3,17c-10.6,2-13.1,12.7-4.7,17.8c20,12.1,42.1,13.9,64.8,10.1c-14.9-2.1-29.8-4.2-44-6.1
		C652.6,466.8,658.1,433.6,653,400.4z M698.3,373c-0.4-1-0.9-1.9-1.3-2.9c-1.9,0.5-3.7,1.2-5.6,1.5c-16,2.1-32,5.4-48.1,5.9
		c-14.6,0.4-19-9.2-14.4-22.6c2.1-6,0.1-13.4-0.1-21.4c-3.4,11.2-6,20.2-8.8,29.1c-3.4,10.7-0.3,19.1,10.8,21.9
		c9.2,2.4,19.6,3.8,28.7,1.9c13.7-3,19.3,1.3,21.3,14.4c1,6.5,4,12.7,6,19c1.1-0.3,2.1-0.6,3.2-0.9c-3.4-12.2-6.7-24.4-10.1-36.6
		C686.4,379,692.4,376,698.3,373z M745.2,213.2c18.6,12.3,18.3,12.3,21,34c0.7,5.8,3.5,11.7,6.7,16.7c6.7,10.5,27.2,17.8,35.5,13.5
		c-23.3-4.4-37.6-12-37.8-40C770.6,225.7,760.9,216.4,745.2,213.2z M519.4,323.3c-1.5,0.9-2.9,1.9-4.4,2.8
		c-3.8-1.2-7.6-2.4-11.4-3.5c-0.6,1.2-1.1,2.3-1.7,3.5c5.4,2.6,10.5,5.9,16.2,7.4c1.5,0.4,5.9-4.3,6.6-7.2
		c2.6-10.5-12.9-36.6-22.9-40.8C507.5,297.6,513.4,310.5,519.4,323.3z M694.4,207.3c-6.8-5.5-12.8-11.2-13.4-10.7
		c-5.5,4.8-10,10.6-14.8,16.1c3.5,2.5,8,7.8,10.4,7C682.1,217.8,686.6,213,694.4,207.3z M683.9,539.4c0.5-0.4,1-0.9,1.6-1.3
		c-4.4-1.9-9.2-3.1-13-5.8c-9.9-7.2-20.6-3.1-30.8-2.5c-3.5,0.2-8.9,2.5-9.8,5.1c-2.7,8.3-3.8,17.1-5.5,25.7
		c3.3-2.1,4.9-4.7,5.9-7.5c3-9,1.1-22.6,17.8-17.9c9.5-14.1,12.8-1.4,15.7,2.2C673.3,538.1,678.6,538.7,683.9,539.4z M729.6,427.5
		c11.8,14.5,34.3,16.7,46.2,8.7C762.6,433.7,747.1,430.8,729.6,427.5z M789.3,465.3c-14.2-2.6-28.3-5.2-45-8.3
		C756.3,470.7,773,473,789.3,465.3z M738.4,305.2c0.4-0.7,0.8-1.4,1.3-2.1c-4.3-3.2-8.2-7.2-13-9.4c-3.9-1.8-10.5-3.7-13-1.7
		c-5.3,4.2-7.2,11-5.6,17.7c5.8-4.5,9.9-10.3,14.5-10.7C727.6,298.4,733.1,302.9,738.4,305.2z M541.1,214c0.9-1.2,1.7-2.3,2.6-3.5
		c-4.1-2.8-8.2-5.6-12.3-8.4c-3.2,8.4-18.2,4.8-18.6,15.6c7,0,12.7,0,18.7,0c-0.3-2.2-0.7-5.3-1.4-10.4
		C534.8,210.3,538,212.2,541.1,214z M515,271.7c13-8.5,22.3-0.8,31.5,6.5c8,6.4,16.2,9.5,24.3,6.5c-7.2-3.5-15.8-6.6-23.3-11.5
		C532.5,263.3,526.4,262.4,515,271.7z M750.3,483.2c7.5,13.6,18,17.9,32.1,15.7C772.9,494.2,762.6,489.2,750.3,483.2z M509.2,235.3
		c-4.9-2.7-10-7.4-15.2-7.7c-4-0.2-8.3,5.2-15,9.8C490.9,236.6,498.9,236,509.2,235.3z M758.9,515c1.6,11.9,9.3,16.2,24.8,15
		C775.9,525.3,768,520.5,758.9,515z M654.1,558.1c-4.8,14-13.8,14.9-25.7,7.5c0.2,1.6,0.4,3.1,0.7,4.7c9.9,0,19.9,0,29.9,0
		C657.5,566.4,656,562.8,654.1,558.1z M669.2,239.1c-0.6,6-1.3,11.9-2,18.5C679.8,254.4,680.3,251.8,669.2,239.1z M562.4,187.1
		c-1.4-1.4-2.7-2.9-4.1-4.3c-4.4,4.3-8.8,8.5-13.1,12.8c1.3,1.3,2.6,2.6,3.9,3.9C559.2,201.6,560.5,194,562.4,187.1z M674.9,472.6
		c1.2-0.1,2.3-0.2,3.5-0.2c-0.6-9.2-1.1-18.3-1.7-27.5c-1.4,0.1-2.8,0.2-4.2,0.3C673.3,454.4,674.1,463.5,674.9,472.6z M667,569.6
		c4.4,0.7,7.9,1.4,11.4,1.7c3.3,0.3,6.6,0.1,9.9,0.1c-0.1-1.7-0.2-3.5-0.3-5.2C681.2,576.3,673.9,554.6,667,569.6z M735.8,555
		c-5.5-12.9-9.3-14.5-16.6-8.7C724.1,548.8,729.1,551.4,735.8,555z M710.2,571.1c0.5,1.4,1,2.7,1.5,4.1c6.5-1.6,13-3.2,19.5-4.7
		c-0.3-1.1-0.5-2.3-0.8-3.4C723.7,568.4,716.9,569.7,710.2,571.1z M668.3,331.9c-1.4,0-2.7,0.1-4.1,0.1c0.5,3.7,1.1,7.4,1.6,11.2
		c0.8-0.1,1.6-0.2,2.5-0.3C668.3,339.2,668.3,335.6,668.3,331.9z M738.7,589.8c-0.2-1.3-0.5-2.7-0.7-4c-4.2,1-8.3,2-12.5,3
		c0.3,1.1,0.5,2.3,0.8,3.4C730.4,591.4,734.6,590.6,738.7,589.8z M663.7,306c0.8,0.5,1.6,1,2.4,1.5c1.4-2.2,2.7-4.5,4.1-6.7
		c-0.8-0.5-1.5-0.9-2.3-1.4C666.5,301.5,665.1,303.8,663.7,306z M684.4,312.3c0.6,0.2,1.2,0.4,1.8,0.7c0.7-1.5,1.4-3.1,2.2-4.6
		c-0.9-0.3-1.9-0.7-2.8-1C685.2,309,684.8,310.7,684.4,312.3z M646.1,343.2c0.8-0.5,1.6-0.9,2.4-1.4c-1.3-1.8-2.6-3.6-3.8-5.4
		c-0.6,0.4-1.2,0.8-1.7,1.2C644,339.5,645.1,341.4,646.1,343.2z M653.3,297.7c0.5-0.4,1.3-0.6,1.6-1.1c0.2-0.5-0.1-1.3-0.1-1.9
		c-0.7,0.5-1.6,0.8-2.1,1.4C652.4,296.2,653,297.1,653.3,297.7z"/>
	<path d="M898.6,214c-3.8-4.4-7.5-8.8-11.4-13.1c-5.7-6.2-10.5-13.7-17.4-18.1c-42-26.8-85.4-51.1-134.9-61.2
		c-47.6-9.8-95-7.9-140.8,9.5c-32.5,12.4-61,31.9-89.2,52.2c-21.8,15.7-29.5,38.5-36.9,61.3c-16.9,52.2-26.5,106.1-22.6,161.2
		c4.3,61.3,19.8,119.7,53.8,171.8c4.8,7.4,14.5,12.5,22.9,16.6c30.7,15,61.2,30.5,92.8,43.1c44,17.5,89.5,17.5,135.7,7.9
		c39.5-8.2,73.9-26.8,107.5-47.7c7.4-4.6,16.1-7.1,24.2-10.5c0,0,0.8,0.7,0.8,0.7c8.8,14.4,17.7,28.7,26.5,43.1
		c35.9-23.4,85.5-25.1,106.9-4.1c-24.4,6.2-46.2,15.5-58.7,41.3c16,0,30.5-1.5,44.4,0.4c13.7,1.9,27.7,6,36.2,21
		c-47.7-2.8-80.3,23.9-112.4,52.1c-8.4,7.4-18.1,13.5-28.1,18.7c-6.9,3.6-11.8,0.1-13.7-8.4c-2-9-5.5-17.8-9.3-26.2
		c-3.8-8.4-10.6-10.5-19.3-6.4c-57.3,27.4-117.5,40.4-181.1,37.2c-42.8-2.2-83.6-12.3-121.9-31.8c-3.6-1.8-7.4-3.4-12.9-5.9
		c-2.1,5.6-4.4,10.6-5.9,15.8c-1.5,5.1-1.8,10.5-3.3,15.5c-3.7,11.9-9.2,14-20,7.7c-19.7-11.4-39-23.5-59-34.4
		c-29.2-16.1-60.1-26.7-94.1-26.7c10.6-22.5,44.8-37.8,75.5-34.2c15.2,1.8,15.2,1.8,16.4,7.7c-31.2-8.7-57.9-0.7-84.1,21.1
		c59.7,6.7,106.9,35.3,153.1,66c0.9-0.6,1.7-1.2,2.6-1.7c-0.9-3.9-0.9-8.5-3-11.5c-16-22.9-31.8-46-49.2-67.9
		c-10.8-13.5-11.8-16.6,0-29.6c4.7-5.1,8.1-11.4,12.1-17.2c0.3-0.3,0.6-0.6,0.8-0.9c6.3-11.9,14.1-23.2,18.1-35.8
		c1.5-4.9-5-12.9-9-18.8c-22.1-32.7-32-69.9-41-107.6c-20.6-85.6-8.6-167.9,23.6-248.4c0.5-1.1,0.9-2.3,1.4-3.4
		c3.6-8.4,11.9-18.5,9.7-25c-4.6-13.4-14.5-25-23-36.9c-1.1-1.5-6.3-0.6-9.4-0.1c-18.8,2.9-37.4,7.3-56.2,8.7
		c-13,1-25.1-4.6-36-13.7c9.3-3.4,18-5.3,25.3-9.6c6.9-4.1,12.4-10.6,18-17.4c-32-2.2-59.1-11.5-80.2-39.1
		c49.6,6.8,82.2-21.8,116.9-45.5c11.7-8,23.6-16.1,36.3-22c11.4-5.3,14.3-1.8,17,10.5c2.1,9.7,5.8,19.2,10.4,28
		c1.3,2.5,9.3,4.2,12.1,2.7c53.3-29.3,111.2-38.4,170.9-37.5c53.4,0.8,105.2,10.8,153.9,33.6c6.1,2.8,9.9,2.7,12.8-3.4
		c2.9-6.2,6.4-12.2,8.5-18.6c5.5-16.9,11.8-20.3,26.9-11.4c12.9,7.6,25,16.7,36.9,25.8c30.5,23.3,62.4,43,105.9,39.8
		c-21.8,25.3-48.3,33.9-79.4,36.8c11.7,17.7,30.5,18.9,46.6,25.9c-7.8,10.7-19.5,12.8-31.1,14.2c-20.8,2.5-41.4,2.7-61.6-4.4
		c-2.8-1-9,1-10.2,3.3c-4.4,8.6-7.8,17.9-10.8,27.2c-0.8,2.4,1.3,6.1,2.7,8.8C891.4,201.5,895.1,207.7,898.6,214L898.6,214z
		 M487,684.9c-0.7-0.4-1.4-0.9-2.1-1.3c0.4,0.8,0.7,1.5,1.1,2.3c13.1,20.1,26.2,40.2,39.5,60.6c3.1-9.7,6.2-19.4,9.5-29.4
		C519,706.4,503,695.6,487,684.9z M895.1,746.6c1.5-4.5,2.3-9.5,4.7-13.4c9.8-16.3,20.3-32.2,30.2-48.5c3.1-5.2,5.3-11,7.9-16.5
		c-1-0.7-2-1.3-3-2c-21.7,15.5-43.3,30.9-62.6,44.7c5.4,13.2,10.1,25.3,15.3,37.2c0.7,1.5,3.5,2.2,5.3,3.2c-1,7.4,3.9,6.4,7.3,4.2
		c7.7-5.1,15.4-10.5,22.2-16.8c26.6-24.9,53.7-48.8,92.2-53.1c3.2-0.4,6.3-1.7,12.2-3.3c-24.6-11.2-46.7-15.3-72.3-8.2
		c4.1-30.5,26.4-39.6,48.6-49.6c-29.1-13.6-64.5-9.3-86.1,10.4c7.3,6.9,14.7,13.7,21.8,20.7c6.3,6.3,7.3,13.4,2.3,21
		C925.8,700,910.5,723.3,895.1,746.6z M447.3,90.4c-3.4,7.8-6.9,15.6-11.3,25.7c24.3-19.5,46.5-37.2,68-54.5
		c-5.2-9.7-9.9-18.5-15.1-28.2c-3.1,5.1-5.1,9.1-7.7,12.6c-11.3,15-22.8,29.9-34.2,44.9c10.8-16.6,22-32.9,32.4-49.8
		c3.9-6.4,5.8-14,8.7-21.1c-1.1-0.9-2.3-1.9-3.4-2.8c-5.2,1.7-11,2.4-15.4,5.2c-14,9-27.9,18.4-41.2,28.4
		c-28,21.2-57.9,37-97.6,35.7c25.4,21.2,51.4,30.2,83,27.5c-4.1,8.3-8.4,15.9-14.6,21.5c-6.4,5.8-14.5,9.6-22.1,14.5
		c16.9,11.8,66.5,6.8,78.2-7.5c-6.6-5.8-13.5-11.4-19.9-17.5c-2.1-2.1-4.7-6.6-3.8-8.3C436,107.7,441.8,99.2,447.3,90.4z
		 M931.6,659.5c-13.7-16.5-27.9-32.6-41.1-49.5c-12.2-15.7-11.8-16.2-29.6-7.4c-5.5,2.7-10.7,5.9-15.9,9
		c-43.6,25.8-89.6,45.1-140.9,46.3c-44.7,1.1-87.2-9.8-127.3-29.5c-19.7-9.6-39.4-19.3-59-29.2c-8.1-4-11.7-1.2-16,6.4
		c-9.1,16.1-19.4,31.6-30.4,46.5c-4.1,5.6-5.4,8.7,0.4,12.7c24.3,17,47.3,36.3,73.2,50.4c64.8,35.3,134.5,44.2,207.1,32.1
		C820.5,736.2,880.1,706.8,931.6,659.5z M920.5,110.7c-96.6-98.5-336.1-141.4-480.3,9c17.7,21.6,35.3,43,53.1,64.8
		c14-9.3,30.1-20.1,46.2-30.9c42.5-28.4,89.8-41.5,140.5-42.7c52.5-1.3,99.9,16.7,145.5,40.2c18.3,9.5,35.8,20.5,52.6,30.2
		C892.4,157.7,906,135,920.5,110.7z M1018.5,89.7c-32.2-2.9-58-13.4-81.2-31.2c-17.1-13.1-35-25.2-53-37.1
		c-3.4-2.2-8.8-1.3-13.3-1.9c0.8,4.1,0.4,9.1,2.6,12.2c8.4,12,17.7,23.3,26.6,34.9c9.2,11.9,18.7,23.6,27.6,35.7
		c4.9,6.6,5,12-2.8,18.4c-9.1,7.3-15.9,17.5-25.3,28.2c31.3,10.1,58.9,13,87.6,0.6c-12.3-6.9-23.5-12.5-33.8-19.4
		c-3.5-2.3-4.7-8-6.9-12.2c4.2-1.6,8.3-4.1,12.7-4.5C980.3,111.5,999.6,105.6,1018.5,89.7z M921.8,101.2c0.5-0.3,0.9-0.5,1.4-0.8
		c-18.8-22.7-37.5-45.4-56.5-68.4c-4.2,8.7-8.1,16.6-11.4,23.6C877.8,71.1,899.8,86.2,921.8,101.2z"/>
	<path d="M844.7,194.9c5.7,6.9,12.7,13.1,16.9,20.8c15.9,29.3,17.4,71.2-7,100.1c-17.4,20.5-42.1,28.1-67.5,33.8
		c-13.8,3.1-27.4,6.7-40.7,12.5c15.9,2.6,32.1,3.9,47.5,8.2c13.2,3.6,26,9.6,38,16.4c16.3,9.3,20.5,28.3,14.7,48.2
		c-4.6,15.9-7.6,32.4-10.1,48.8c-1.9,12.8,3.9,22.5,14.9,29.9c13.5,9.1,12.7,16.1-1.8,23.6c-4.3,2.2-9,3.7-13.6,5.5
		c-16.4,6.7-32.8,13.4-50.8,20.7c2.7-2.7,4.6-5.4,7.2-7c14.2-8.6,28.5-17.3,43.1-25.3c8-4.4,10.2-9.5,3.9-16.3
		c-16.7-18-16-39-11.4-60.9c1.6-7.6,3.1-15.2,4.4-22.8c4.4-24.4,1.6-32.5-21.5-42.2c-19.7-8.3-40.9-12.9-61.4-19.4
		c-4.4-1.4-8.6-3.8-12.8-5.7c3.1-3.9,5.4-9.4,9.4-11.4c9.4-4.5,19.6-7.4,29.5-10.7c15-5,30.9-8.2,44.9-15.1
		c43.7-21.6,56.8-75,29.7-117c-2.6-4.1-5.6-8-8.5-11.9C842.7,196.7,843.7,195.8,844.7,194.9z"/>
	<path d="M587,218.3c26.3,14.1,26.8,49,48.8,69.1c5.4-6.5,9.5-11.2,13.6-16.1c-22-16.9-23.6-23.2-8.2-34.1c-0.9,5.5-3.7,11.5-2,15.4
		c2.1,4.6,8.2,7.5,12.7,10.9c7.2,5.5,2.4,10.1-1.3,14.2c-8.5,9.5-8.7,9.4-5.6,19.2c-5.5-3.7-10.7-7.3-18.6-12.7
		c2.7,13.9,4.8,24.7,7,35.4c-0.7,0.2-1.4,0.4-2.1,0.6c-3-8.8-6.1-17.6-9.6-27.8c-20.2,12.5-39,24.1-57.8,35.7
		c-0.8-1.1-1.7-2.2-2.5-3.3c9.8-7.7,19.6-15.4,29.5-23c3.9-3,7.9-5.7,12-8.3c9.2-6,12.1-14.6,8-24.2
		C603.6,252.1,595.1,235.3,587,218.3z"/>
	<path d="M614.7,512.5c0,6.3-0.1,12.6,0,18.9c0.2,21.9-1.2,44,1.2,65.7c2.5,23,11.5,30,34.6,33.7c15.2,2.4,30.4,4.7,46,8.7
		c-6.1,0.9-12.5,3.4-18.2,2.4c-20.6-3.8-41.1-8.5-61.5-13.8c-3.4-0.9-7.8-5.9-8.3-9.4c-4.6-35.7-2.1-71.2,2.4-106.6
		C612.2,512.3,613.4,512.4,614.7,512.5z"/>
	<path d="M722,264.7c-2.6-0.3-5.9-0.4-9.1-1c-13.5-2.6-15.9-8.9-7.8-20c3.3-4.6,5.8-10.5,10.3-13.3c5.3-3.2,13.2-6.3,18.3-4.5
		c4.3,1.5,8.2,9.7,8.9,15.3C744.4,256.6,736.3,265.2,722,264.7z"/>
	<path d="M653,400.4c5.1,33.2-0.4,66.4-1,102.1c14.2,2,29.1,4.1,44,6.1c-22.7,3.8-44.8,2-64.8-10.1c-8.4-5-5.9-15.7,4.7-17.8
		c10.9-2.1,12.4-8,12.3-17c-0.1-19.5,0.4-38.9,0.7-58.4c0-1.7,0.8-3.5,1.2-5.2C651,400.2,652,400.3,653,400.4z"/>
	<path d="M882.5,587c27.4-48.1,42.9-100.3,48.2-154.9c3-31.3,0-63.2-0.3-94.8c0-3.1-0.3-6.1,2.1-9.6c1.3,8.2,3.1,16.4,3.7,24.6
		c4.9,66.3-4.4,130.7-28.8,192.5c-6,15.1-15.9,28.6-24.1,42.9L882.5,587z"/>
	<path d="M698.3,373c-6,3-11.9,6-18.5,9.3c3.4,12.2,6.7,24.4,10.1,36.6c-1.1,0.3-2.1,0.6-3.2,0.9c-2.1-6.3-5-12.5-6-19
		c-2-13.1-7.6-17.3-21.3-14.4c-9.1,2-19.5,0.5-28.7-1.9c-11-2.8-14.2-11.2-10.8-21.9c2.8-8.9,5.4-17.8,8.8-29.1
		c0.2,7.9,2.1,15.4,0.1,21.4c-4.6,13.4-0.2,23,14.4,22.6c16.1-0.5,32.1-3.7,48.1-5.9c1.9-0.3,3.7-1,5.6-1.5
		C697.5,371,697.9,372,698.3,373z"/>
	<path d="M481.3,629.4c-26.1-11-52.9-14.1-80.5-8.3c14.4,10.7,28.4,21.1,42.3,31.4c-0.8,1.3-1.6,2.5-2.4,3.8
		c-18.5-17.9-38.9-31.7-66.2-29.8c0-1-0.1-2-0.1-3c5.1-1.7,10.1-3.6,15.2-4.9c25.7-6.4,51.4-8.7,76.8,1.1c5.5,2.1,10.5,5.8,15.7,8.8
		C481.8,628.8,481.5,629.1,481.3,629.4z"/>
	<path d="M670.2,178.8c9.2-2.5,18.6-4.4,27.6-7.6c15.3-5.5,30.2-11.8,45.4-17.5c4.4-1.7,9.2-2.3,14.1-2.2
		c-28,13-53.8,32.5-87.4,27.1L670.2,178.8z"/>
	<path d="M745.2,213.2c15.6,3.2,25.4,12.5,25.4,24.2c0.2,28,14.5,35.6,37.8,40c-8.4,4.3-28.9-3-35.5-13.5c-3.2-5-6-10.9-6.7-16.7
		C763.5,225.5,763.8,225.4,745.2,213.2z"/>
	<path d="M519.4,323.3c-5.9-12.8-11.9-25.6-17.5-37.8c9.9,4.1,25.5,30.2,22.9,40.8c-0.7,2.9-5,7.6-6.6,7.2
		c-5.7-1.5-10.8-4.8-16.2-7.4c0.6-1.2,1.1-2.3,1.7-3.5c3.8,1.2,7.6,2.4,11.4,3.5C516.5,325.2,517.9,324.2,519.4,323.3z"/>
	<path d="M898.7,214c9.7,27.4,19.6,54.7,28.8,82.3c2.1,6.3,2,13.4,0.6,20.4c-3.3-13.1-5.9-26.5-10-39.4c-5.3-17-11.9-33.6-17.6-50.5
		C899.2,222.8,899.2,218.3,898.7,214C898.6,214,898.7,214,898.7,214z"/>
	<path d="M694.4,207.3c-7.8,5.7-12.3,10.5-17.8,12.4c-2.4,0.8-6.9-4.5-10.4-7c4.8-5.5,9.3-11.4,14.8-16.1
		C681.7,196,687.7,201.8,694.4,207.3z"/>
	<path d="M683.9,539.4c-5.3-0.6-10.6-1.2-18.1-2.1c-2.9-3.5-6.2-16.2-15.7-2.2c-16.7-4.7-14.8,9-17.8,17.9c-0.9,2.8-2.6,5.4-5.9,7.5
		c1.7-8.6,2.7-17.4,5.5-25.7c0.9-2.6,6.3-4.9,9.8-5.1c10.3-0.6,20.9-4.8,30.8,2.5c3.7,2.7,8.6,3.9,13,5.8
		C685,538.5,684.5,538.9,683.9,539.4z"/>
	<path d="M729.6,427.5c17.6,3.3,33,6.2,46.2,8.7C763.8,444.3,741.4,442.1,729.6,427.5z"/>
	<path d="M789.3,465.3c-16.3,7.7-33,5.4-45-8.3C760.9,460.1,775,462.7,789.3,465.3z"/>
	<path d="M738.4,305.2c-5.3-2.3-10.8-6.8-15.8-6.3c-4.6,0.5-8.8,6.2-14.5,10.7c-1.7-6.7,0.3-13.5,5.6-17.7c2.4-1.9,9-0.1,13,1.7
		c4.8,2.2,8.7,6.2,13,9.4C739.2,303.8,738.8,304.5,738.4,305.2z"/>
	<path d="M541.1,214c-3.1-1.9-6.3-3.8-11.1-6.7c0.7,5,1.1,8.2,1.4,10.4c-6,0-11.6,0-18.7,0c0.4-10.8,15.4-7.3,18.6-15.6
		c4.1,2.8,8.2,5.6,12.3,8.4C542.8,211.7,542,212.9,541.1,214z"/>
	<path d="M515,271.7c11.3-9.3,17.5-8.4,32.5,1.5c7.5,4.9,16.1,8,23.3,11.5c-8.1,3-16.4-0.1-24.3-6.5
		C537.4,270.9,528,263.2,515,271.7z"/>
	<path d="M750.3,483.2c12.2,6,22.5,11,32.1,15.7C768.3,501.1,757.9,496.8,750.3,483.2z"/>
	<path d="M509.2,235.3c-10.3,0.7-18.3,1.3-30.3,2.1c6.7-4.7,11-10.1,15-9.8C499.2,227.8,504.2,232.6,509.2,235.3z"/>
	<path d="M758.9,515c9,5.5,17,10.3,24.8,15C768.3,531.2,760.5,526.9,758.9,515z"/>
	<path d="M654.1,558.1c1.9,4.7,3.4,8.3,5,12.1c-10.1,0-20,0-29.9,0c-0.2-1.6-0.4-3.1-0.7-4.7C640.3,573,649.3,572.1,654.1,558.1z"/>
	<path d="M669.2,239.1c11.2,12.8,10.7,15.3-2,18.5C667.9,251,668.6,245,669.2,239.1z"/>
	<path d="M562.4,187.1c-1.9,6.9-3.1,14.5-13.3,12.4c-1.3-1.3-2.6-2.6-3.9-3.9c4.4-4.3,8.8-8.5,13.1-12.8
		C559.6,184.2,561,185.6,562.4,187.1z"/>
	<path d="M674.9,472.6c-0.8-9.1-1.6-18.3-2.4-27.4c1.4-0.1,2.8-0.2,4.2-0.3c0.6,9.2,1.1,18.3,1.7,27.5
		C677.2,472.5,676,472.5,674.9,472.6z"/>
	<path d="M667,569.6c6.9-15,14.3,6.6,21.1-3.5c0.1,1.7,0.2,3.5,0.3,5.2c-3.3,0-6.6,0.2-9.9-0.1C674.9,571,671.4,570.3,667,569.6z"/>
	<path d="M735.8,555c-6.7-3.5-11.7-6.1-16.6-8.7C726.5,540.4,730.3,542,735.8,555z"/>
	<path d="M710.2,571.1c6.7-1.3,13.5-2.7,20.2-4c0.3,1.1,0.5,2.3,0.8,3.4c-6.5,1.6-13,3.2-19.5,4.7
		C711.2,573.8,710.7,572.4,710.2,571.1z"/>
	<path d="M668.3,331.9c0,3.7,0,7.3,0,11c-0.8,0.1-1.6,0.2-2.5,0.3c-0.5-3.7-1.1-7.4-1.6-11.2C665.6,332,666.9,331.9,668.3,331.9z"/>
	<path d="M738.7,589.8c-4.1,0.8-8.3,1.6-12.4,2.4c-0.3-1.1-0.5-2.3-0.8-3.4c4.2-1,8.3-2,12.5-3C738.2,587.1,738.4,588.5,738.7,589.8
		z"/>
	<path d="M669.9,178.6c-1.8,3.4-3.7,6.8-5.5,10.2c-1.1-0.9-2.2-1.9-3.3-2.8c3-2.4,6-4.7,9.1-7.1L669.9,178.6z"/>
	<path d="M663.7,306c1.4-2.2,2.8-4.4,4.2-6.6c0.8,0.5,1.5,0.9,2.3,1.4c-1.4,2.2-2.7,4.5-4.1,6.7C665.3,307,664.5,306.5,663.7,306z"
		/>
	<path d="M684.4,312.3c0.4-1.7,0.8-3.3,1.2-5c0.9,0.3,1.9,0.7,2.8,1c-0.7,1.5-1.4,3.1-2.2,4.6C685.6,312.8,685,312.6,684.4,312.3z"
		/>
	<path d="M646.1,343.2c-1.1-1.8-2.1-3.7-3.2-5.5c0.6-0.4,1.2-0.8,1.7-1.2c1.3,1.8,2.6,3.6,3.8,5.4
		C647.7,342.3,646.9,342.8,646.1,343.2z"/>
	<path d="M653.3,297.7c-0.3-0.6-0.9-1.5-0.7-1.6c0.6-0.6,1.4-1,2.1-1.4c0.1,0.7,0.4,1.4,0.1,1.9
		C654.6,297.1,653.8,297.3,653.3,297.7z"/>
	<path display="none" fill="#FFFFFF" d="M931.6,659.5c-51.5,47.3-111.1,76.6-179.5,88c-72.6,12-142.3,3.2-207.1-32.1
		c-25.9-14.1-48.9-33.4-73.2-50.4c-5.7-4-4.5-7.2-0.4-12.7c11-14.9,21.3-30.4,30.4-46.5c4.3-7.6,7.9-10.4,16-6.4
		c19.6,9.8,39.3,19.5,59,29.2c40.2,19.7,82.7,30.6,127.3,29.5c51.3-1.3,97.3-20.5,140.9-46.3c5.2-3.1,10.5-6.3,15.9-9
		c17.7-8.7,17.3-8.3,29.6,7.4C903.7,627,917.9,643.1,931.6,659.5z M843.7,660.7l0.2,0.2c2.6-12.8-8.6-11-13.6-10
		c-5.7,1.1-12.8,6.3-15,11.5c-3.2,7.5-1,16.1,7,21.4c7.8,5,12.9,0.4,17.9-4.9c1.5-1.6,3.7-2.7,9-6.4c0,6.9,1.3,11.6-0.4,14.3
		c-1.3,2.1-6.6,1.5-10.1,2.2c-3.2,0.7-6.4,1.6-10.6,2.7c12.5,14.7,27.7,11.6,34-6.4C865.2,676.2,857.8,666.4,843.7,660.7z
		 M546.8,682.7c-0.1,16.3,11.4,29.2,26.4,29.4c19.2,0.3,36.1-18.4,36.2-40.1c0.1-14.9-10.3-25.8-24.9-26
		C564.8,645.7,546.9,663.1,546.8,682.7z M806.6,710.6c4.3,4.1,10,3.6,14.4-2.7c-4.2-6.6-7.9-11.7-10.9-17.2
		c-2.9-5.3-4.7-11.3-7.9-16.4c-1.3-2.1-5.1-2.6-7.8-3.8c-1.2,3-3.8,6.2-3.4,8.9c0.8,5.1,3.4,9.9,5.1,14.9c2.5,7.3,0.3,12.5-8.6,15.7
		c-2.7-6.7-4.9-13.1-7.8-19.2c-1.8-3.9-3.9-8.1-7-10.9c-1.7-1.5-7.4-1.7-8.3-0.4c-1.5,2.3-1.7,6.5-0.8,9.2
		c2.1,6.1,6.1,11.5,7.8,17.7c2.5,9.2,8.7,14.7,17.1,14.4C794,720.6,799.2,715,806.6,710.6z M675.8,720.3c-6.5,2.7-7.4,5-2.9,10.9
		c4.8,6.4,20.3,8,28.2,3c7.6-4.9,10.8-18.3,6.4-26.2c-1.3-2.3-2.7-5-2.8-7.5c-0.7-9.1-9.7-16.7-19.3-15.8
		c-12.4,1.1-21.2,10-19.2,20.5c2.2,11.7,10.8,9.9,19.2,8.1c0.4-0.1,0.8-0.1,1.2-0.2c9-0.8,12.6,3.5,8.4,11.3
		c-1.6,3.1-7.1,7.6-8.4,6.9C682.7,729.2,680,724.9,675.8,720.3z M657,695.3c-3.1-10.1-8.5-18-20.3-16.5
		c-12.1,1.5-18.5,11.1-18.1,24.6c0,1.8,0,3.8-0.6,5.5c-3.4,9.1,0.1,20.1,9.6,21.5c7.5,1.2,16.6-1.3,23.3-5.1
		c3.8-2.2,6.6-10.5,5.9-15.5c-1.5-10.3-11.1-6.4-17.8-7.5c-3.3-0.6-8.9-2.9-8.8-4.3c0.2-4.5,2.4-9,4.2-14.4
		C651.5,698.1,651.5,698.1,657,695.3z M732,711.7c6.4-3.7,12.4-6.4,17.3-10.4c2.4-2,4.6-7.2,3.6-9.7c-4.1-10.6-15.1-12.8-24-5.6
		c-9.3,7.4-12.9,20.1-8.7,30.6c4.9,12.3,17.8,19.6,31.5,17.7c10.3-1.4,12.7-5.3,9.9-16.5C747.4,724.7,740.8,723.5,732,711.7z"/>
	<path display="none" fill="#FFFFFF" d="M920.5,110.7c-14.5,24.3-28.2,47-42.3,70.6c-16.8-9.7-34.3-20.7-52.6-30.2
		c-45.6-23.6-93-41.5-145.5-40.2c-50.7,1.2-98,14.3-140.5,42.7c-16.2,10.8-32.3,21.6-46.2,30.9c-17.9-21.8-35.4-43.2-53.1-64.8
		C584.4-30.7,823.9,12.2,920.5,110.7z M494,162.6c10.1-5.1,18.8-9.8,27.7-13.8c9-4.1,16.9-9,16-20.3c-0.8-10.3-6.9-15.6-17.6-16.7
		c-3.3-0.3-6.6-4.2-9.3-7c-3.3-3.4-5.6-10.2-8.9-10.6c-5.2-0.6-12.5,1.4-16,5.1c-6.9,7.1-11.8,16.1-17.6,24.4
		C483.9,128.2,496.1,145.7,494,162.6z M655.4,58.3c-11.1-10.6-19.7-11.8-27.9-5.1c-8.4,6.9-9,15.5-2.1,26.6c1.1,1.8,1.7,4.3,1.4,6.4
		c-1.2,8.3,4.6,11.8,10.4,11.9c7.4,0.1,15.6-1.1,22.1-4.5c9.3-4.7,7.4-13.2,3.3-21.2c-4.2-8.1-10.1-8.4-17.2-4.1
		c-1.7,1-3.7,2.5-5.5,2.4c-2.8-0.1-7.6-0.9-8-2.3c-1-3.5,0.1-7.5,0.4-11.3c3,0.5,6.1,0.4,8.8,1.6c2.4,1,4.1,3.4,6.3,5.4
		C650.3,62,652.5,60.4,655.4,58.3z M607.3,70.7c-4.4-1.5-9-2.9-13.6-4.5c-7.9-2.8-13.4-0.7-16.4,7.4c-1.3,3.4-2.6,6.8-3.8,10.2
		c-3.3,9.6-0.8,17.8,7.5,23.3c7,4.7,14.4,8.3,20.5-2.3c0.7-1.3,6.3,0.7,9.5,0.3c2.3-0.3,5.2-1.5,6.5-3.2c0.8-1-0.2-5.2-1.5-5.8
		C605.1,90.4,607.7,80.3,607.3,70.7z M740,86.4c0.2-1.5,0.4-3.1,0.6-4.6c4.4-1.4,8.8-2.9,13.3-4c6-1.5,11.7-3.3,8-11.2
		c-3-6.5-1.8-17.7-14.8-14c-10.6,3-19.6,13.5-20.5,24.6c-0.7,9.4,6.5,19.5,17.2,24.1c14.6,6.2,16.2,5.5,19-6.9
		C755.2,91.6,747.6,89,740,86.4z M678.9,76.6c-1.1,1.3-2.2,2.6-3.3,3.9c2.7,9.5,9.6,14.2,19.4,14.8c13,0.9,19.5-5.6,19.4-19
		c-0.1-11-3.4-13.1-18.4-12.1c-2.4,0.2-5.7,0.8-7-0.4c-2.2-2.2-3.1-5.6-4.6-8.5c3.1-1.2,6.2-3.4,9.2-3.2c2.1,0.2,3.7,4.1,6.1,5.4
		c3.1,1.6,6.7,2.2,10,3.2c0.6-1.4,1.1-2.7,1.7-4.1c-3.6-2.9-6.8-6.7-10.9-8.6c-7.9-3.7-16.8-4.2-21.9,3.6
		c-2.8,4.3-4.1,13.2-1.5,16.5c3,3.9,10.9,4.1,16.7,6c3.3,1.1,6.6,2.5,9.9,3.8c-1.8,3.7-2.8,9.7-5.5,10.6c-3.1,1-7.9-2.1-11.4-4.4
		C683.8,82.4,681.5,79.2,678.9,76.6z M857.8,135.4c0.8-1.1,1.7-2.3,2.5-3.4c4.5,0,8.9,0.1,13.4,0c9.8-0.2,17.4-7.4,15-16.8
		c-0.9-3.4-9-6.7-14.1-7.2c-17.7-1.6-30.9,20-23.4,37.5c5.1,11.8,14.8,14.7,23.6,7.4C869.1,147.1,863.5,141.3,857.8,135.4z
		 M528.3,92.4c8.2,10.9,15,19.5,21.3,28.4c4.8,6.9,9.3,8.6,14.3,1.4c-5.9-9.8-11.4-18.9-16.9-28.1c1.2-0.6,2.4-1.3,3.6-1.9
		c1.3,2.8,2.6,5.6,4,8.4c1.4-0.1,2.8-0.2,4.2-0.3c0-4.6,1.2-9.7-0.3-13.8c-2.1-5.7-8.4-9-12-3c-3.7,6.2-6.7,7.7-13.3,6.1
		C531.3,89.2,528.5,92.3,528.3,92.4z M790.1,67.8c-3.9,10.2-7.4,18.6-10.4,27.2c-1.7,5-9.2,10.6-0.4,15c1.2,0.6,6.8-6.3,9.7-10.2
		c4.1-5.6,7.5-11.6,11.2-17.5c1.2,0.8,2.4,1.5,3.5,2.3c-1.2,2.5-2.3,5-3.9,8.6c9.1,0.1,14.9-3.2,14.8-11.4c0-2-7.3-4-12.6-6.7
		C802.1,67.5,796.4,65.9,790.1,67.8z M827.8,134.5c2.4-9.4,3.5-15.6,5.6-21.4c1.6-4.5,5.8-8.6,6.1-13c0.3-3.7-3.1-8.1-5.7-11.4
		c-0.6-0.7-7.6,2.7-7.6,2.8c3.8,11.3-7.3,17.4-8.9,26.6c-0.7,4-1.6,9.4,0.4,12C820.1,133,825.5,133.6,827.8,134.5z M838.8,75.7
		c-0.6,1.4-1.1,2.9-1.7,4.3c4.9,2.6,9.7,5.5,14.9,7.3c0.9,0.3,3.6-4.7,6.8-9.1C850.3,77.1,844.6,76.4,838.8,75.7z"/>
	<path display="none" fill="#FFFFFF" d="M447.3,90.4c-5.5,8.7-11.3,17.3-16.1,26.4c-0.9,1.7,1.7,6.2,3.8,8.3
		c6.3,6.2,13.2,11.7,19.9,17.5c-11.7,14.3-61.3,19.2-78.2,7.5c7.6-4.9,15.8-8.7,22.1-14.5c6.2-5.6,10.5-13.2,14.6-21.5
		c-31.6,2.7-57.6-6.3-83-27.5c39.7,1.3,69.6-14.5,97.6-35.7c13.3-10,27.1-19.4,41.2-28.4c4.4-2.8,10.2-3.5,15.4-5.2
		c1.1,0.9,2.3,1.9,3.4,2.8c-2.8,7.1-4.8,14.7-8.7,21.1c-10.3,16.9-21.5,33.2-32.4,49.8C446.8,90.9,447.3,90.4,447.3,90.4z"/>
	<path display="none" fill="#FFFFFF" d="M1018.5,89.7c-18.9,15.9-38.2,21.8-59.3,23.7c-4.3,0.4-8.4,2.9-12.7,4.5
		c2.2,4.1,3.4,9.8,6.9,12.2c10.3,6.9,21.6,12.5,33.8,19.4c-28.7,12.4-56.3,9.5-87.6-0.6c9.4-10.7,16.2-20.9,25.3-28.2
		c7.9-6.3,7.7-11.7,2.8-18.4c-8.9-12.1-18.4-23.8-27.6-35.7c-9-11.6-18.2-22.9-26.6-34.9c-2.2-3.1-1.8-8.1-2.6-12.2
		c4.5,0.6,9.9-0.3,13.3,1.9c18,11.9,35.9,24,53,37.1C960.5,76.3,986.3,86.8,1018.5,89.7z"/>
	<path display="none" fill="#FFFFFF" d="M895.1,746.6c15.3-23.3,30.7-46.6,46-69.9c5-7.6,4-14.8-2.3-21
		c-7.1-7.1-14.5-13.8-21.8-20.7c21.6-19.7,57-24,86.1-10.4c-22.1,9.9-44.5,19.1-48.6,49.6c25.6-7.2,47.8-3.1,72.3,8.2
		c-6,1.7-9.1,3-12.2,3.3c-38.5,4.3-65.6,28.2-92.2,53.1c-6.7,6.3-14.4,11.7-22.2,16.8c-3.4,2.2-8.4,3.3-7.3-4.2c0,0-0.2,0.3-0.2,0.3
		c0.9-1.8,1.9-3.6,2.8-5.4C895.4,746.2,895.1,746.6,895.1,746.6z"/>
	<path display="none" fill="#FFFFFF" d="M892.9,751.3c-1.8-1.1-4.6-1.7-5.3-3.2c-5.2-11.9-9.9-24-15.3-37.2
		c19.2-13.7,40.9-29.2,62.6-44.7c1,0.7,2,1.3,3,2c-2.6,5.5-4.8,11.3-7.9,16.5c-9.9,16.3-20.4,32.2-30.2,48.5
		c-2.4,4-3.2,8.9-4.7,13.4c0,0,0.3-0.4,0.3-0.4c-0.9,1.8-1.9,3.6-2.8,5.4C892.7,751.6,892.9,751.3,892.9,751.3z"/>
	<path display="none" fill="#FFFFFF" d="M446.8,90.9C458.3,75.9,469.8,61,481.1,46c2.7-3.5,4.7-7.5,7.7-12.6
		c5.2,9.7,10,18.5,15.1,28.2c-21.5,17.2-43.7,35-68,54.5c4.4-10.1,7.9-17.9,11.3-25.7C447.3,90.4,446.8,90.9,446.8,90.9z"/>
	<path display="none" fill="#FFFFFF" d="M921.8,101.2c-22-15.1-44-30.1-66.5-45.6c3.4-7,7.2-14.9,11.4-23.6
		c19,23,37.8,45.7,56.5,68.4C922.7,100.7,922.3,101,921.8,101.2z"/>
	<path display="none" fill="#FFFFFF" d="M487,684.9c16,10.8,32.1,21.5,48,32.2c-3.2,10-6.3,19.6-9.5,29.4
		c-13.3-20.3-26.4-40.5-39.5-60.6C486.3,685.5,486.6,685.2,487,684.9z"/>
	<path display="none" fill="#FFFFFF" d="M486,685.9c-0.4-0.8-0.7-1.5-1.1-2.3c0.7,0.4,1.4,0.9,2.1,1.3
		C486.6,685.2,486.3,685.5,486,685.9z"/>
	<path d="M546.8,682.7c0.2-19.7,18-37.1,37.7-36.8c14.5,0.2,25,11.1,24.9,26c-0.1,21.7-17,40.4-36.2,40.1
		C558.2,711.9,546.6,699,546.8,682.7z M594.2,678.7c0.1-14.1-9.7-25.9-20.6-24.9c-9.5,0.9-15.2,12.3-13.2,26.3c0.3,2,0.6,4.1,1.3,6
		c3,8.5,5.7,18,17.4,17c11.5-1,11.9-11.6,15.1-19.6C594.6,682.1,594.2,680.3,594.2,678.7z"/>
	<path d="M806.6,710.6c-7.4,4.5-12.7,10.1-18.1,10.3c-8.4,0.3-14.6-5.2-17.1-14.4c-1.6-6.1-5.7-11.6-7.8-17.7c-1-2.8-0.8-7,0.8-9.2
		c0.9-1.3,6.6-1.1,8.3,0.4c3.1,2.8,5.1,7,7,10.9c2.8,6.1,5.1,12.5,7.8,19.2c8.9-3.3,11.1-8.4,8.6-15.7c-1.7-5-4.3-9.8-5.1-14.9
		c-0.4-2.7,2.2-5.9,3.4-8.9c2.7,1.2,6.5,1.7,7.8,3.8c3.2,5.1,5,11.1,7.9,16.4c3,5.5,6.7,10.7,10.9,17.2
		C816.7,714.2,810.9,714.7,806.6,710.6z"/>
	<path d="M675.8,720.3c4.2,4.6,6.9,8.9,10.8,11c1.2,0.7,6.7-3.8,8.4-6.9c4.1-7.8,0.5-12.1-8.4-11.3c-0.4,0-0.8,0.1-1.2,0.2
		c-8.3,1.8-17,3.6-19.2-8.1c-2-10.5,6.8-19.4,19.2-20.5c9.6-0.9,18.6,6.7,19.3,15.8c0.2,2.6,1.5,5.2,2.8,7.5
		c4.4,7.9,1.3,21.3-6.4,26.2c-7.9,5-23.4,3.4-28.2-3C668.4,725.3,669.3,722.9,675.8,720.3z M692.9,707c1-1.7,2-3.4,3-5.2
		c-4.6-3.3-9.1-6.5-13.7-9.8c-1.1,2.8-3.6,7.6-3.1,7.9C683.4,702.8,688.3,704.8,692.9,707z"/>
	<path d="M843.7,660.7c14,5.7,21.5,15.5,18.3,24.7c-6.2,18-21.5,21-34,6.4c4.2-1.1,7.4-2,10.6-2.7c3.5-0.7,8.8-0.2,10.1-2.2
		c1.8-2.7,0.4-7.4,0.4-14.3c-5.3,3.7-7.4,4.8-9,6.4c-5,5.3-10.1,9.9-17.9,4.9c-8.1-5.2-10.2-13.9-7-21.4c2.2-5.2,9.3-10.4,15-11.5
		c5.1-1,16.2-2.8,13.6,10c-2.6-0.6-5.2-1.6-7.8-1.7c-3.8-0.2-10.3-1-11,0.5c-1.5,3.6-0.3,8.4-0.2,12.7c3.9-0.8,8.3-0.7,11.5-2.6
		C839.5,667.9,841.3,663.8,843.7,660.7z"/>
	<path d="M657,695.3c-5.5,2.8-5.5,2.8-22.6-11.8c-1.8,5.4-4.1,9.9-4.2,14.4c-0.1,1.4,5.6,3.7,8.8,4.3c6.7,1.2,16.3-2.8,17.8,7.5
		c0.7,5-2.1,13.4-5.9,15.5c-6.7,3.8-15.9,6.3-23.3,5.1c-9.5-1.5-13.1-12.4-9.6-21.5c0.6-1.7,0.6-3.7,0.6-5.5
		c-0.3-13.5,6-23.1,18.1-24.6C648.5,677.2,653.9,685.2,657,695.3z M627.9,705.8c-2.7,11.5-3.5,19.2,6.4,19.6
		c2.6,0.1,5.4-6.6,8.1-10.2C638,712.4,633.5,709.5,627.9,705.8z"/>
	<path d="M732,711.7c8.8,11.9,15.4,13,29.6,6.1c2.8,11.2,0.4,15.1-9.9,16.5c-13.7,1.8-26.5-5.4-31.5-17.7
		c-4.2-10.4-0.5-23.2,8.7-30.6c9-7.2,19.9-5,24,5.6c1,2.5-1.2,7.7-3.6,9.7C744.4,705.3,738.4,708,732,711.7z M728.2,703.3
		c13-6,13-6,6.1-12.3C732.2,695.3,730.2,699.3,728.2,703.3z"/>
	<path d="M494,162.6c2.1-16.9-10.1-34.4-25.6-39c5.8-8.3,10.7-17.3,17.6-24.4c3.6-3.7,10.8-5.7,16-5.1c3.3,0.4,5.6,7.2,8.9,10.6
		c2.7,2.8,5.9,6.7,9.3,7c10.6,1.1,16.7,6.4,17.6,16.7c0.9,11.3-7,16.2-16,20.3C512.8,152.8,504.2,157.6,494,162.6z M513.2,149.9
		c6.6-7.5,12.1-11.4,14.1-16.6c2.1-5.4-11.3-15.7-19.3-13.7c-4.4,1.1-11.3,9.2-10.4,11.4C500.1,137.1,506.1,141.8,513.2,149.9z
		 M488.8,124.9c1.5,0.1,2.9,0.2,4.4,0.3c2.6-4.8,6.1-9.4,7.3-14.6c0.6-2.7-2.8-6.4-4.4-9.6c-3,1.8-8.3,3.3-8.5,5.5
		C486.9,112.5,488.3,118.7,488.8,124.9z"/>
	<path d="M655.4,58.3c-3,2.1-5.2,3.7-8,5.7c-2.2-1.9-4-4.4-6.3-5.4c-2.6-1.2-5.8-1.1-8.8-1.6c-0.3,3.8-1.4,7.9-0.4,11.3
		c0.4,1.5,5.2,2.2,8,2.3c1.8,0.1,3.8-1.4,5.5-2.4c7.1-4.3,13-3.9,17.2,4.1c4.1,7.9,6,16.5-3.3,21.2c-6.5,3.3-14.7,4.6-22.1,4.5
		c-5.9-0.1-11.7-3.6-10.4-11.9c0.3-2-0.3-4.6-1.4-6.4c-6.9-11.1-6.3-19.6,2.1-26.6C635.7,46.4,644.3,47.7,655.4,58.3z M645.8,97.2
		c3.3-5.9,6.9-9.4,6.5-12.2c-0.5-3.3-4.5-6.1-6.9-9.2c-2.8,2.5-8.1,5.3-7.8,7.3C638.1,87.2,641.8,90.8,645.8,97.2z"/>
	<path d="M607.3,70.7c0.5,9.6-2.2,19.7,8.8,25.3c1.3,0.7,2.3,4.8,1.5,5.8c-1.4,1.8-4.2,2.9-6.5,3.2c-3.2,0.4-8.7-1.5-9.5-0.3
		c-6.1,10.5-13.5,6.9-20.5,2.3c-8.3-5.6-10.8-13.7-7.5-23.3c1.2-3.4,2.5-6.8,3.8-10.2c3-8.1,8.6-10.1,16.4-7.4
		C598.3,67.8,602.9,69.2,607.3,70.7z M601.5,89.8c-6.3-5.6-10.9-9.7-15.5-13.8c-2,2.4-6.1,6.2-5.6,6.8c3.7,5.2,8.2,9.8,12.8,14.3
		C593.3,97.2,596.9,93.8,601.5,89.8z"/>
	<path d="M740,86.4c7.6,2.6,15.2,5.2,22.8,7.9c-2.8,12.4-4.5,13.1-19,6.9c-10.7-4.5-17.9-14.7-17.2-24.1
		c0.9-11.1,9.8-21.5,20.5-24.6c13-3.7,11.8,7.5,14.8,14c3.7,7.9-2,9.7-8,11.2c-4.5,1.1-8.9,2.7-13.3,4
		C740.4,83.3,740.2,84.8,740,86.4z M746.5,60.9c-1.5,0-3,0-4.5-0.1c-1.5,4.5-3.1,9-5.7,16.7c6.3-2.5,11.4-3.2,11.9-5
		C749,69,747.2,64.8,746.5,60.9z"/>
	<path d="M678.9,76.6c2.6,2.6,4.8,5.8,7.8,7.7c3.5,2.2,8.3,5.3,11.4,4.4c2.7-0.8,3.7-6.8,5.5-10.6c-3.3-1.3-6.5-2.7-9.9-3.8
		c-5.8-1.9-13.7-2.1-16.7-6c-2.6-3.4-1.3-12.3,1.5-16.5c5.1-7.8,14.1-7.3,21.9-3.6c4.1,1.9,7.3,5.7,10.9,8.6
		c-0.6,1.4-1.1,2.7-1.7,4.1c-3.4-1-7-1.6-10-3.2c-2.4-1.3-4-5.2-6.1-5.4c-3-0.2-6.1,2-9.2,3.2c1.5,2.9,2.4,6.4,4.6,8.5
		c1.3,1.2,4.6,0.6,7,0.4c15-1.1,18.3,1.1,18.4,12.1c0.1,13.4-6.3,19.9-19.4,19c-9.7-0.7-16.6-5.3-19.4-14.8
		C676.8,79.2,677.9,77.9,678.9,76.6z"/>
	<path d="M857.8,135.4c5.7,5.8,11.3,11.7,16.9,17.4c-8.8,7.3-18.5,4.4-23.6-7.4c-7.5-17.4,5.7-39.1,23.4-37.5
		c5.1,0.5,13.3,3.7,14.1,7.2c2.4,9.4-5.2,16.7-15,16.8c-4.5,0.1-8.9,0-13.4,0C859.5,133.2,858.7,134.3,857.8,135.4z M875.8,120
		c-1.3-1.7-2.5-3.5-3.8-5.2c-3.6,2.8-7.2,5.6-10.8,8.4c1.1,1.5,2.2,3,3.2,4.5C868.3,125.1,872,122.5,875.8,120z"/>
	<path d="M528.3,92.4c0.2-0.1,3-3.2,4.9-2.7c6.5,1.6,9.6,0.1,13.3-6.1c3.6-6,9.9-2.7,12,3c1.5,4.1,0.3,9.1,0.3,13.8
		c-1.4,0.1-2.8,0.2-4.2,0.3c-1.3-2.8-2.6-5.6-4-8.4c-1.2,0.6-2.4,1.3-3.6,1.9c5.5,9.1,11,18.3,16.9,28.1c-5.1,7.2-9.5,5.5-14.3-1.4
		C543.3,111.9,536.5,103.3,528.3,92.4z"/>
	<path d="M790.1,67.8c6.3-1.9,12-0.3,11.9,7.3c5.3,2.7,12.6,4.7,12.6,6.7c0.1,8.1-5.7,11.5-14.8,11.4c1.6-3.5,2.8-6,3.9-8.6
		c-1.2-0.8-2.4-1.5-3.5-2.3c-3.7,5.8-7.1,11.9-11.2,17.5c-2.9,3.9-8.5,10.8-9.7,10.2c-8.8-4.5-1.3-10,0.4-15
		C782.7,86.4,786.2,78,790.1,67.8z"/>
	<path d="M827.8,134.5c-2.3-0.9-7.7-1.5-10-4.5c-2-2.6-1.1-8-0.4-12c1.6-9.2,12.7-15.3,8.9-26.6c0-0.1,7-3.5,7.6-2.8
		c2.7,3.3,6,7.6,5.7,11.4c-0.3,4.5-4.5,8.5-6.1,13C831.3,118.9,830.2,125.1,827.8,134.5z"/>
	<path d="M838.8,75.7c5.7,0.7,11.5,1.4,19.9,2.5c-3.2,4.4-5.9,9.4-6.8,9.1c-5.2-1.7-10-4.7-14.9-7.3
		C837.7,78.6,838.3,77.1,838.8,75.7z"/>
	<path display="none" d="M892.7,751.6c0.9-1.8,1.9-3.6,2.8-5.4C894.5,748,893.6,749.8,892.7,751.6z"/>
	<path display="none" fill="#FFFFFF" d="M594.2,678.7c0,1.6,0.5,3.4-0.1,4.8c-3.2,7.9-3.6,18.6-15.1,19.6c-11.7,1-14.4-8.5-17.4-17
		c-0.7-1.9-1-3.9-1.3-6c-2.1-14.1,3.7-25.4,13.2-26.3C584.5,652.7,594.3,664.6,594.2,678.7z"/>
	<path display="none" fill="#FFFFFF" d="M692.9,707c-4.7-2.2-9.5-4.2-13.8-7c-0.5-0.3,2-5.2,3.1-7.9c4.6,3.3,9.1,6.5,13.7,9.8
		C694.9,703.6,693.9,705.3,692.9,707z"/>
	<path display="none" fill="#FFFFFF" d="M843.7,660.7c-2.4,3.1-4.2,7.2-7.3,9.1c-3.1,2-7.6,1.8-11.5,2.6c-0.1-4.3-1.3-9.1,0.2-12.7
		c0.6-1.5,7.1-0.7,11-0.5c2.6,0.1,5.2,1.1,7.8,1.7C844,661,843.7,660.7,843.7,660.7z"/>
	<path display="none" fill="#FFFFFF" d="M627.9,705.8c5.6,3.6,10,6.6,14.5,9.5c-2.7,3.6-5.5,10.3-8.1,10.2
		C624.4,725.1,625.3,717.4,627.9,705.8z"/>
	<path display="none" fill="#FFFFFF" d="M728.2,703.3c2-4,4-8,6.1-12.3C741.2,697.4,741.2,697.4,728.2,703.3z"/>
	<path display="none" fill="#FFFFFF" d="M513.2,149.9c-7.1-8.1-13.1-12.8-15.6-18.9c-0.9-2.2,6-10.3,10.4-11.4
		c8-2,21.4,8.3,19.3,13.7C525.3,138.6,519.8,142.5,513.2,149.9z"/>
	<path display="none" fill="#FFFFFF" d="M488.8,124.9c-0.6-6.1-2-12.4-1.3-18.4c0.2-2.1,5.5-3.7,8.5-5.5c1.6,3.2,5.1,6.9,4.4,9.6
		c-1.2,5.1-4.8,9.7-7.3,14.6C491.7,125.1,490.3,125,488.8,124.9z"/>
	<path display="none" fill="#FFFFFF" d="M645.8,97.2c-4-6.4-7.7-10-8.3-14.1c-0.3-2,5-4.9,7.8-7.3c2.5,3,6.4,5.8,6.9,9.2
		C652.7,87.8,649.1,91.2,645.8,97.2z"/>
	<path display="none" fill="#FFFFFF" d="M601.5,89.8c-4.6,4-8.2,7.4-8.3,7.3c-4.6-4.5-9.1-9.1-12.8-14.3c-0.4-0.6,3.6-4.5,5.6-6.8
		C590.6,80,595.1,84.1,601.5,89.8z"/>
	<path display="none" fill="#FFFFFF" d="M746.5,60.9c0.7,3.9,2.5,8.1,1.6,11.6c-0.5,1.8-5.6,2.5-11.9,5c2.7-7.7,4.2-12.2,5.7-16.7
		C743.5,60.9,745,60.9,746.5,60.9z"/>
	<path display="none" fill="#FFFFFF" d="M875.8,120c-3.8,2.6-7.5,5.1-11.3,7.7c-1.1-1.5-2.2-3-3.2-4.5c3.6-2.8,7.2-5.6,10.8-8.4
		C873.3,116.5,874.5,118.2,875.8,120z"/>
</g>
</svg>
